<?xml version="1.0" standalone="no"?>
<!DOCTYPE svg PUBLIC "-//W3C//DTD SVG 20010904//EN"
 "http://www.w3.org/TR/2001/REC-SVG-20010904/DTD/svg10.dtd">
<svg version="1.0" xmlns="http://www.w3.org/2000/svg"
 width="16.000000pt" height="16.000000pt" viewBox="0 0 16.000000 16.000000"
 preserveAspectRatio="xMidYMid meet">
<metadata>
Created by potrace 1.11, written by Peter Selinger 2001-2013
</metadata>
<g transform="translate(0.000000,16.000000) scale(0.002286,-0.002286)"
fill="#000000" stroke="none">
<path d="M3347 6320 c-689 -67 -1309 -366 -1779 -860 -63 -66 -121 -120 -128
-120 -8 0 -170 61 -362 136 l-349 136 -66 -12 c-66 -11 -123 -44 -222 -128
l-34 -28 378 -240 c208 -131 382 -241 386 -244 5 -3 -25 -71 -65 -150 -146
-285 -236 -562 -280 -859 -8 -57 -17 -106 -20 -108 -2 -2 -131 55 -286 126
-311 145 -348 155 -435 126 -53 -18 -85 -41 -85 -60 0 -6 132 -135 293 -285
160 -151 325 -307 366 -346 l74 -71 -22 -22 c-24 -24 -41 -62 -41 -91 0 -30
38 -58 96 -71 30 -7 54 -14 54 -15 0 -2 14 -71 30 -154 141 -697 554 -1329
1135 -1734 368 -257 754 -410 1215 -483 164 -25 615 -26 780 0 756 118 1400
499 1844 1092 359 479 536 993 564 1633 l7 154 105 42 c210 84 351 167 431
253 63 67 69 81 69 165 0 75 -1 79 -36 118 -44 48 -103 76 -262 124 -68 21
-160 54 -205 75 -107 49 -143 61 -218 69 l-63 7 -31 80 c-70 179 -203 422
-324 588 -405 559 -1002 953 -1671 1102 -233 52 -619 77 -843 55z m628 -529
c642 -109 1187 -463 1547 -1006 65 -98 208 -365 208 -388 0 -13 -125 -40 -670
-142 l-564 -106 -1256 487 c-690 268 -1259 491 -1265 496 -21 20 227 227 411
343 263 167 608 288 937 330 160 20 493 13 652 -14z m-2011 -1330 l329 -206
199 -204 c109 -112 197 -205 195 -208 -3 -2 -195 -39 -427 -83 l-423 -79 -112
117 c-310 325 -335 354 -328 381 30 131 203 508 226 495 7 -4 160 -100 341
-213z m3932 -1073 c-15 -218 -66 -468 -135 -658 -79 -215 -233 -484 -382 -666
-346 -424 -859 -720 -1399 -809 -934 -153 -1854 271 -2349 1082 -68 112 -171
326 -171 358 0 11 16 94 37 184 l38 163 110 -7 c415 -26 1124 -22 1503 10
l193 16 195 -173 c108 -95 204 -179 215 -187 18 -13 19 -33 19 -537 0 -493 1
-524 18 -524 75 2 254 30 285 45 60 28 89 74 193 299 53 116 209 456 346 756
138 300 253 548 257 553 4 4 81 19 172 33 161 24 725 135 784 153 17 5 41 10
54 10 l24 1 -7 -102z"/>
</g>
</svg>
